<svg version="1.1" id="Layer_1" xmlns="http://www.w3.org/2000/svg" xmlns:xlink="http://www.w3.org/1999/xlink" x="0px" y="0px"
	 width="100%" viewBox="0 0 896 560" enable-background="new 0 0 896 560" xml:space="preserve">
<path fill="#000000" opacity="1.000000" stroke="none" 
	d="
M685.000000,561.000000 
	C527.977966,561.000000 370.955963,561.000000 213.471954,560.718384 
	C211.412445,555.948364 208.341782,551.212891 210.252487,546.662476 
	C213.516754,538.888367 215.397522,530.522766 220.489075,523.457275 
	C231.755127,507.823486 236.104736,490.278320 234.245529,471.074463 
	C233.149963,459.758575 227.979721,449.714905 224.960342,439.010895 
	C221.239731,425.821014 221.232101,412.763580 227.793610,400.188263 
	C233.844193,388.592194 241.280640,377.659454 243.428680,364.257660 
	C245.706284,350.047363 246.321030,336.925323 232.673874,327.117615 
	C225.290680,321.811646 223.923584,310.197662 228.262878,302.127258 
	C229.522354,299.784851 231.171036,297.535004 231.863632,295.027863 
	C233.496964,289.115326 237.548416,285.313385 242.331940,282.160797 
	C255.529495,273.462982 267.417572,263.673950 274.435486,248.893539 
	C276.899872,243.703262 277.922119,239.002380 275.661987,233.647583 
	C274.101837,229.951111 272.874023,226.087189 273.431519,221.994186 
	C274.307129,215.565750 274.667236,209.090973 275.551086,202.649490 
	C276.903259,192.795135 278.868347,182.891006 277.635803,172.835983 
	C277.272217,169.870224 278.813782,168.257996 280.979980,166.704178 
	C286.809357,162.522751 290.930847,157.124832 293.477417,150.282776 
	C295.136536,145.825073 297.238525,141.469971 300.397614,137.666199 
	C311.064972,124.821846 326.248901,118.483101 340.435333,111.364174 
	C348.214661,107.460419 356.216583,104.128769 363.656097,99.339493 
	C374.489227,92.365524 379.935242,83.465569 377.204254,70.388161 
	C376.489471,66.965523 376.884613,63.383881 379.549225,61.072208 
	C387.445465,54.221798 388.507172,43.836792 393.309387,35.410545 
	C393.848083,34.465271 393.902466,33.139500 393.879181,31.996334 
	C393.774292,26.840658 396.555695,24.159790 401.193390,22.593718 
	C404.123596,21.604237 407.817413,21.426521 409.481415,18.422192 
	C412.281311,13.366988 416.353302,9.469928 420.216003,5.354688 
	C421.695312,3.778654 422.402313,2.337581 420.000000,1.000000 
	C499.688690,1.000000 579.377380,1.000000 659.347229,1.174184 
	C656.981873,3.247366 659.175110,4.485391 660.331299,5.671440 
	C665.246704,10.713959 670.745544,14.999904 677.086365,18.139147 
	C681.819763,20.482546 685.062683,23.935787 686.168518,29.323959 
	C687.050781,33.622658 689.681946,36.749428 693.575012,38.882782 
	C697.368835,40.961742 701.476624,42.738770 704.719238,45.501961 
	C714.722717,54.026493 726.325867,59.092159 738.785095,62.607445 
	C742.491760,63.653252 746.165161,64.928848 748.526672,68.273735 
	C750.490417,71.055161 753.102844,73.135429 755.799194,75.064537 
	C759.812927,77.936096 763.031738,81.436752 765.386780,85.754013 
	C768.657898,91.750519 773.233215,96.003685 780.227966,97.259399 
	C784.471619,98.021233 787.271484,100.693794 789.221802,104.489853 
	C791.829163,109.564941 795.120789,114.064674 799.802856,117.564468 
	C804.696655,121.222527 807.194763,126.455650 808.242981,132.418396 
	C811.586670,151.440018 815.277039,170.347122 820.513611,189.002396 
	C824.041504,201.570328 823.936829,214.863327 820.393616,227.564865 
	C814.645020,248.171738 811.144531,268.704681 817.762146,289.770294 
	C818.152893,291.014374 817.961304,292.429260 818.219971,293.729004 
	C819.957703,302.460327 817.098206,310.942444 816.868896,319.565674 
	C816.291504,341.275635 814.679993,362.792053 806.519531,383.309662 
	C803.479248,390.953674 801.878784,399.074249 803.070862,407.328766 
	C805.489746,424.078430 799.549561,438.816803 792.111450,453.044312 
	C784.769470,467.088165 772.445251,477.837982 765.402405,492.170746 
	C764.777283,493.442841 763.381714,494.356537 762.285217,495.373352 
	C756.317139,500.907898 749.524170,505.595093 744.871155,512.485413 
	C744.351013,513.255737 743.381958,513.879272 742.487549,514.214539 
	C737.399902,516.121521 733.809753,519.982300 730.848083,524.131104 
	C727.225098,529.206482 722.761902,532.851685 717.198547,535.412781 
	C715.701416,536.101990 714.144409,536.946533 713.017822,538.109985 
	C703.961243,547.462708 691.772827,552.149536 681.190186,559.590210 
	C682.554688,560.095093 683.777344,560.547546 685.000000,561.000000 
M484.529602,200.553650 
	C506.861664,200.581558 529.195740,200.428833 551.525330,200.678085 
	C588.651855,201.092484 614.417236,230.703568 609.987793,267.575684 
	C604.653198,311.982544 565.452515,352.529419 521.078125,359.274475 
	C504.683594,361.766479 488.131989,359.912445 471.659363,360.381653 
	C468.641815,360.467621 465.827423,359.932037 464.835999,356.609161 
	C463.826935,353.227081 465.049744,350.380829 467.712524,348.152496 
	C470.306702,345.981506 473.398834,345.658112 476.644043,345.656342 
	C489.975220,345.649048 503.486938,346.942963 516.601685,345.228973 
	C548.817383,341.018646 572.014954,322.992188 587.240417,294.654175 
	C593.957581,282.151917 596.695435,268.506165 594.107300,254.480530 
	C589.649170,230.320953 571.495911,215.612518 546.299194,215.420959 
	C516.468018,215.194153 486.633820,215.320633 456.801025,215.362396 
	C418.716522,215.415726 381.699677,244.354706 372.110413,281.233612 
	C365.953522,304.912079 359.449524,328.500214 353.131042,352.136841 
	C341.782166,394.591339 330.337189,437.020721 319.171265,479.523346 
	C313.782227,500.036346 323.775879,518.259888 342.822968,523.028503 
	C350.159698,524.865356 357.824402,524.871399 365.120514,522.928955 
	C389.562439,516.421814 405.976868,501.053436 413.261627,476.780609 
	C417.371246,463.087341 420.140961,448.997070 423.870605,435.181854 
	C425.141541,430.474121 424.185547,428.133514 419.669464,425.796356 
	C399.494568,415.355591 389.485748,398.174103 388.738007,375.750305 
	C387.866119,349.604248 398.318420,327.612427 415.795715,309.000977 
	C438.266724,285.071716 465.660980,271.661499 499.211487,272.641235 
	C508.869965,272.923309 518.543091,272.704803 528.209473,272.716156 
	C531.113403,272.719574 533.393311,273.748657 534.643005,276.551178 
	C535.831116,279.215607 534.734985,281.408844 533.251282,283.517700 
	C530.662109,287.197784 526.801819,288.012665 522.672485,288.036133 
	C513.006287,288.091095 503.330017,288.358002 493.675110,288.030426 
	C470.995392,287.260956 451.421082,295.057190 434.636536,309.744904 
	C415.539734,326.455933 403.252350,346.780670 404.173828,373.220886 
	C405.018707,397.463562 422.845734,416.381073 447.051880,417.656372 
	C462.837799,418.488068 478.700256,417.856110 494.528381,417.901093 
	C503.225983,417.925781 511.815063,416.894989 520.277588,414.994904 
	C564.882996,404.979553 601.418152,381.692352 630.075562,346.426331 
	C656.904541,313.410583 672.915588,276.175751 668.601562,232.598251 
	C665.397278,200.231232 649.981445,175.049530 621.654968,158.267426 
	C603.466370,147.491516 583.440613,143.746185 562.715271,143.499634 
	C531.552917,143.128906 500.383972,143.336365 469.217896,143.261688 
	C451.718292,143.219772 434.218964,143.067123 416.719391,143.043701 
	C410.752411,143.035706 410.134552,143.781952 411.335297,149.410187 
	C414.582733,164.631714 421.996368,177.312958 434.513885,186.796432 
	C449.047485,197.807388 465.761505,201.091980 484.529602,200.553650 
z"/>
</svg>